<?xml version="1.0" encoding="utf-8"?>
<svg version="1.1" id="Layer_1" xmlns="http://www.w3.org/2000/svg" xmlns:xlink="http://www.w3.org/1999/xlink" x="0px" y="0px"
	 viewBox="0 0 115 115" style="enable-background:new 0 0 115 115;" xml:space="preserve">
<title>website-icon</title>
<path fill="#959ca2" d="M88.6,58.6l-2.8-10.2h-5.4l-2.8,10.3l-1.9-10.3H64.9L63,58.6l-2.8-10.2h-5.4L52,58.6L50,48.3H39.3l-1.9,10.2l-2.8-10.2h-5.4
	l-2.8,10.3l-1.9-10.3h-5.4l4.1,18.3h5.6l3.2-11.5l3.2,11.5h5.6l4-18.2l4.1,18.2h5.6l3.2-11.5l3.2,11.5h5.6l4-18.2l4.1,18.2h5.6
	l3.2-11.5l3.2,11.5h5.6l4-18.3h-5.3L88.6,58.6z M98.1,16.8C87.3,6,72.8,0,57.5,0S27.7,6,16.8,16.8C6,27.7,0,42.1,0,57.5
	c0,15.4,6,29.8,16.8,40.7C27.7,109,42.1,115,57.5,115s29.8-6,40.7-16.8C109,87.3,115,72.8,115,57.5C115,42.1,109,27.7,98.1,16.8z
	 M98.8,23.3c-0.9,0.6-1.9,1.1-2.9,1.7c-2.8,1.5-5.8,2.8-9.1,3.9c-1.4-4.2-3.1-8-5.1-11.5c-2.7-4.7-5.7-8.4-9-11.3
	C83,9.1,92.1,15.2,98.8,23.3z M59.4,3.9c7,0.8,13.5,6.1,18.7,15.1c1.9,3.3,3.5,7,4.8,11c-7.2,2-15.2,3.1-23.5,3.3V3.9z M55.6,3.9
	v29.4c-8.3-0.2-16.3-1.3-23.5-3.3c1.3-4,2.9-7.6,4.8-11C42,10.1,48.6,4.8,55.6,3.9z M42.3,6c-3.3,2.8-6.4,6.6-9,11.3
	c-2,3.5-3.7,7.4-5.1,11.5c-3.2-1.1-6.3-2.4-9.1-3.9c-1-0.5-2-1.1-2.9-1.7C22.9,15.2,31.9,9.1,42.3,6z M15.2,90.4
	c1.2-0.8,2.5-1.6,3.9-2.3c2.6-1.4,5.5-2.6,8.5-3.7c1.5,4.8,3.4,9.3,5.7,13.3c2.7,4.7,5.7,8.4,9,11.3C31.4,105.7,22,99.1,15.2,90.4z
	 M55.6,111c-7-0.8-13.5-6.1-18.7-15.1c-2.2-3.8-4-8.1-5.4-12.7c7.3-2.1,15.5-3.3,24.1-3.5V111z M59.4,111V79.7
	c8.6,0.2,16.7,1.3,24.1,3.5c-1.4,4.6-3.2,8.9-5.4,12.7C72.9,104.9,66.4,110.2,59.4,111z M72.7,108.9c3.3-2.8,6.4-6.6,9-11.3
	c2.3-4,4.2-8.4,5.7-13.3c3,1.1,5.9,2.3,8.5,3.7c1.4,0.7,2.7,1.5,3.9,2.3C93,99.1,83.6,105.7,72.7,108.9z M102.1,87.3
	c-1.4-0.9-2.8-1.8-4.4-2.6c-2.9-1.5-6-2.8-9.3-4c0.8-3.2,1.5-6.4,1.9-9.8h-4.2c-0.4,2.9-1,5.8-1.7,8.6c-7.7-2.2-16.2-3.4-25.1-3.6
	v-5h-3.8v5c-8.9,0.2-17.4,1.4-25.1,3.6c-0.7-2.8-1.3-5.6-1.7-8.6h-4.2c0.5,3.4,1.1,6.7,1.9,9.8c-3.3,1.1-6.4,2.5-9.3,4
	c-1.6,0.8-3,1.7-4.4,2.6c-5.4-8-8.7-17.6-9-27.9h11v-3.8h-11c0.4-10.9,4-20.9,10-29.2c1.1,0.7,2.3,1.4,3.5,2c3,1.6,6.3,3,9.7,4.1
	c-1,3.7-1.8,7.6-2.4,11.6h4.2c0.5-3.6,1.2-7,2.1-10.4c7.5,2.1,15.9,3.3,24.6,3.5v6.9h3.8v-6.9c8.7-0.2,17.1-1.3,24.6-3.5
	c0.9,3.3,1.6,6.8,2.1,10.4h4.2c-0.6-4-1.4-7.9-2.4-11.6c3.5-1.2,6.7-2.6,9.7-4.1c1.2-0.6,2.4-1.3,3.5-2c5.9,8.3,9.6,18.4,10,29.2
	h-11v3.8h11C110.7,69.7,107.5,79.3,102.1,87.3z"/>
</svg>
